#N canvas 219 70 1623 832 12;
#X obj 175 400 pack 255 f f f f f, f 58;
#X obj 231 25 r f1;
#X obj 292 26 r f2;
#X obj 367 29 r f3;
#X obj 439 23 r f4;
#X obj 508 26 r f5;
#X obj 247 225 * 254;
#X obj 245 257 int;
#X floatatom 256 344 5 0 0 0 - - - 0;
#X obj 308 226 * 254;
#X obj 309 256 int;
#X floatatom 317 345 5 0 0 0 - - - 0;
#X msg 258 471 devices;
#X msg 320 495 close;
#X obj 41 283 metro 40;
#X obj 36 259 tgl 15 0 empty empty empty 17 7 0 10 #fcfcfc #000000
#000000 0 1;
#X obj 243 157 * -1;
#X obj 243 183 + 1;
#X obj 307 173 * -1;
#X obj 307 199 + 1;
#X obj 381 223 * 254;
#X obj 382 253 int;
#X floatatom 390 342 5 0 0 0 - - - 0;
#X obj 380 170 * -1;
#X obj 380 196 + 1;
#X obj 452 223 * 254;
#X obj 453 253 int;
#X floatatom 461 342 5 0 0 0 - - - 0;
#X obj 451 170 * -1;
#X obj 451 196 + 1;
#X obj 514 220 * 254;
#X obj 515 250 int;
#X floatatom 523 339 5 0 0 0 - - - 0;
#X obj 513 167 * -1;
#X obj 513 193 + 1;
#X msg 1156 472 devices;
#X msg 1218 496 close;
#X obj 226 108 line;
#X obj 299 104 line;
#X obj 367 108 line;
#X obj 440 104 line;
#X obj 508 109 line;
#X obj 1036 423 pack 255 f f f f f, f 58;
#X obj 1092 48 r f1;
#X obj 1153 49 r f2;
#X obj 1228 52 r f3;
#X obj 1300 46 r f4;
#X obj 1369 49 r f5;
#X obj 1108 248 * 254;
#X obj 1106 280 int;
#X floatatom 1117 367 5 0 0 0 - - - 0;
#X obj 1169 249 * 254;
#X obj 1170 279 int;
#X floatatom 1178 368 5 0 0 0 - - - 0;
#X obj 902 306 metro 40;
#X obj 897 282 tgl 15 0 empty empty empty 17 7 0 10 #fcfcfc #000000
#000000 0 1;
#X obj 1242 246 * 254;
#X obj 1243 276 int;
#X floatatom 1251 365 5 0 0 0 - - - 0;
#X obj 1313 246 * 254;
#X obj 1314 276 int;
#X floatatom 1322 365 5 0 0 0 - - - 0;
#X obj 1375 243 * 254;
#X obj 1376 273 int;
#X floatatom 1384 362 5 0 0 0 - - - 0;
#X obj 1087 131 line;
#X obj 1161 128 line;
#X obj 1228 131 line;
#X obj 1301 127 line;
#X obj 1369 132 line;
#X obj 185 527 comport 0 57600;
#X obj 1083 528 comport 1 57600;
#X msg 317 472 open 1;
#X msg 1215 473 open 0;
#X msg 1087 102 \$1 60;
#X msg 1160 98 \$1 60;
#X msg 1228 102 \$1 60;
#X msg 1301 98 \$1 60;
#X msg 1369 103 \$1 60;
#X msg 508 80 \$1 60;
#X msg 440 75 \$1 60;
#X msg 367 79 \$1 60;
#X msg 299 75 \$1 60;
#X msg 226 79 \$1 60;
#X connect 0 0 70 0;
#X connect 1 0 83 0;
#X connect 2 0 82 0;
#X connect 3 0 81 0;
#X connect 4 0 80 0;
#X connect 5 0 79 0;
#X connect 6 0 7 0;
#X connect 7 0 8 0;
#X connect 8 0 0 1;
#X connect 9 0 10 0;
#X connect 10 0 11 0;
#X connect 11 0 0 2;
#X connect 12 0 70 0;
#X connect 13 0 70 0;
#X connect 14 0 0 0;
#X connect 15 0 14 0;
#X connect 16 0 17 0;
#X connect 17 0 6 0;
#X connect 18 0 19 0;
#X connect 19 0 9 0;
#X connect 20 0 21 0;
#X connect 21 0 22 0;
#X connect 22 0 0 3;
#X connect 23 0 24 0;
#X connect 24 0 20 0;
#X connect 25 0 26 0;
#X connect 26 0 27 0;
#X connect 27 0 0 4;
#X connect 28 0 29 0;
#X connect 29 0 25 0;
#X connect 30 0 31 0;
#X connect 31 0 32 0;
#X connect 32 0 0 5;
#X connect 33 0 34 0;
#X connect 34 0 30 0;
#X connect 35 0 71 0;
#X connect 36 0 71 0;
#X connect 37 0 16 0;
#X connect 38 0 18 0;
#X connect 39 0 23 0;
#X connect 40 0 28 0;
#X connect 41 0 33 0;
#X connect 42 0 71 0;
#X connect 43 0 74 0;
#X connect 44 0 75 0;
#X connect 45 0 76 0;
#X connect 46 0 77 0;
#X connect 47 0 78 0;
#X connect 48 0 49 0;
#X connect 49 0 50 0;
#X connect 50 0 42 1;
#X connect 51 0 52 0;
#X connect 52 0 53 0;
#X connect 53 0 42 2;
#X connect 54 0 42 0;
#X connect 55 0 54 0;
#X connect 56 0 57 0;
#X connect 57 0 58 0;
#X connect 58 0 42 3;
#X connect 59 0 60 0;
#X connect 60 0 61 0;
#X connect 61 0 42 4;
#X connect 62 0 63 0;
#X connect 63 0 64 0;
#X connect 64 0 42 5;
#X connect 65 0 48 0;
#X connect 66 0 51 0;
#X connect 67 0 56 0;
#X connect 68 0 59 0;
#X connect 69 0 62 0;
#X connect 72 0 70 0;
#X connect 73 0 71 0;
#X connect 74 0 65 0;
#X connect 75 0 66 0;
#X connect 76 0 67 0;
#X connect 77 0 68 0;
#X connect 78 0 69 0;
#X connect 79 0 41 0;
#X connect 80 0 40 0;
#X connect 81 0 39 0;
#X connect 82 0 38 0;
#X connect 83 0 37 0;
