#N canvas 219 70 1623 832 12;
#X obj 231 25 r f1;
#X obj 292 26 r f2;
#X obj 367 29 r f3;
#X obj 439 23 r f4;
#X obj 508 26 r f5;
#X obj 247 225 * 254;
#X obj 245 257 int;
#X floatatom 256 344 5 0 0 0 - - - 0;
#X obj 308 226 * 254;
#X obj 309 256 int;
#X floatatom 317 345 5 0 0 0 - - - 0;
#X obj 41 283 metro 40;
#X obj 36 259 tgl 15 0 empty empty empty 17 7 0 10 #fcfcfc #000000
#000000 0 1;
#X obj 243 157 * -1;
#X obj 243 183 + 1;
#X obj 307 173 * -1;
#X obj 307 199 + 1;
#X obj 381 223 * 254;
#X obj 382 253 int;
#X floatatom 390 342 5 0 0 0 - - - 0;
#X obj 380 170 * -1;
#X obj 380 196 + 1;
#X obj 452 223 * 254;
#X obj 453 253 int;
#X floatatom 461 342 5 0 0 0 - - - 0;
#X obj 451 170 * -1;
#X obj 451 196 + 1;
#X obj 514 220 * 254;
#X obj 515 250 int;
#X floatatom 523 339 5 0 0 0 - - - 0;
#X obj 513 167 * -1;
#X obj 513 193 + 1;
#X obj 226 108 line;
#X obj 299 104 line;
#X obj 367 108 line;
#X obj 440 104 line;
#X obj 508 109 line;
#X obj 586 230 * 254;
#X obj 584 262 int;
#X floatatom 595 349 5 0 0 0 - - - 0;
#X obj 647 231 * 254;
#X obj 648 261 int;
#X floatatom 656 350 5 0 0 0 - - - 0;
#X obj 720 228 * 254;
#X obj 721 258 int;
#X floatatom 729 347 5 0 0 0 - - - 0;
#X obj 791 228 * 254;
#X obj 792 258 int;
#X floatatom 800 347 5 0 0 0 - - - 0;
#X obj 853 225 * 254;
#X obj 854 255 int;
#X floatatom 862 344 5 0 0 0 - - - 0;
#X obj 565 113 line;
#X obj 639 110 line;
#X obj 706 113 line;
#X obj 779 109 line;
#X obj 847 114 line;
#X obj 354 496 pack 255 f f f f f f f f f f, f 58;
#X msg 407 558 disconnect;
#X obj 354 592 netsend -u -b;
#X msg 227 559 connect 192.168.0.7 9997;
#X text 1028 293 6.79432e+06;
#X text 1036 339 5.1535e+06;
#X msg 226 79 \$1 100;
#X msg 299 75 \$1 100;
#X msg 367 79 \$1 100;
#X msg 440 75 \$1 100;
#X msg 508 80 \$1 100;
#X msg 565 84 \$1 100;
#X msg 638 80 \$1 100;
#X msg 706 84 \$1 100;
#X msg 779 80 \$1 100;
#X msg 847 85 \$1 100;
#X obj 574 166 * -1;
#X obj 574 192 + 1;
#X obj 678 159 * -1;
#X obj 678 185 + 1;
#X obj 783 162 * -1;
#X obj 783 188 + 1;
#X obj 847 160 * -1;
#X obj 847 186 + 1;
#X obj 570 30 r f6;
#X obj 631 31 r f7;
#X obj 706 34 r f8;
#X obj 778 28 r f9;
#X obj 847 31 r f10;
#X obj 227 534 loadbang;
#X connect 0 0 63 0;
#X connect 1 0 64 0;
#X connect 2 0 65 0;
#X connect 3 0 66 0;
#X connect 4 0 67 0;
#X connect 5 0 6 0;
#X connect 6 0 7 0;
#X connect 7 0 57 1;
#X connect 8 0 9 0;
#X connect 9 0 10 0;
#X connect 10 0 57 2;
#X connect 11 0 57 0;
#X connect 12 0 11 0;
#X connect 13 0 14 0;
#X connect 14 0 5 0;
#X connect 15 0 16 0;
#X connect 16 0 8 0;
#X connect 17 0 18 0;
#X connect 18 0 19 0;
#X connect 19 0 57 3;
#X connect 20 0 21 0;
#X connect 21 0 17 0;
#X connect 22 0 23 0;
#X connect 23 0 24 0;
#X connect 24 0 57 4;
#X connect 25 0 26 0;
#X connect 26 0 22 0;
#X connect 27 0 28 0;
#X connect 28 0 29 0;
#X connect 29 0 57 5;
#X connect 30 0 31 0;
#X connect 31 0 27 0;
#X connect 32 0 13 0;
#X connect 33 0 15 0;
#X connect 34 0 20 0;
#X connect 35 0 25 0;
#X connect 36 0 30 0;
#X connect 37 0 38 0;
#X connect 38 0 39 0;
#X connect 39 0 57 6;
#X connect 40 0 41 0;
#X connect 41 0 42 0;
#X connect 42 0 57 7;
#X connect 43 0 44 0;
#X connect 44 0 45 0;
#X connect 45 0 57 8;
#X connect 46 0 47 0;
#X connect 47 0 48 0;
#X connect 48 0 57 9;
#X connect 49 0 50 0;
#X connect 50 0 51 0;
#X connect 51 0 57 10;
#X connect 52 0 73 0;
#X connect 53 0 40 0;
#X connect 54 0 43 0;
#X connect 55 0 77 0;
#X connect 56 0 79 0;
#X connect 57 0 59 0;
#X connect 58 0 59 0;
#X connect 60 0 59 0;
#X connect 63 0 32 0;
#X connect 64 0 33 0;
#X connect 65 0 34 0;
#X connect 66 0 35 0;
#X connect 67 0 36 0;
#X connect 68 0 52 0;
#X connect 69 0 53 0;
#X connect 70 0 54 0;
#X connect 71 0 55 0;
#X connect 72 0 56 0;
#X connect 73 0 74 0;
#X connect 74 0 37 0;
#X connect 75 0 76 0;
#X connect 77 0 78 0;
#X connect 78 0 46 0;
#X connect 79 0 80 0;
#X connect 80 0 49 0;
#X connect 81 0 68 0;
#X connect 82 0 69 0;
#X connect 83 0 70 0;
#X connect 84 0 71 0;
#X connect 85 0 72 0;
#X connect 86 0 60 0;
