#N canvas 42 65 1170 664 12;
#X obj 231 25 r f1;
#X obj 292 26 r f2;
#X obj 367 29 r f3;
#X obj 439 23 r f4;
#X obj 508 26 r f5;
#X floatatom 315 412 5 0 0 0 - - - 0;
#X floatatom 376 413 5 0 0 0 - - - 0;
#X obj 30 427 tgl 15 0 empty empty empty 17 7 0 10 #fcfcfc #000000
#000000 0 1;
#X floatatom 449 410 5 0 0 0 - - - 0;
#X floatatom 520 410 5 0 0 0 - - - 0;
#X floatatom 582 407 5 0 0 0 - - - 0;
#X obj 226 108 line;
#X obj 299 104 line;
#X obj 367 108 line;
#X obj 440 104 line;
#X obj 508 109 line;
#X floatatom 654 417 5 0 0 0 - - - 0;
#X floatatom 715 418 5 0 0 0 - - - 0;
#X floatatom 788 415 5 0 0 0 - - - 0;
#X floatatom 859 415 5 0 0 0 - - - 0;
#X floatatom 921 412 5 0 0 0 - - - 0;
#X obj 565 113 line;
#X obj 639 110 line;
#X obj 706 113 line;
#X obj 779 109 line;
#X obj 847 114 line;
#X msg 469 555 disconnect;
#X obj 354 592 netsend -u -b;
#X text 1028 293 6.79432e+06;
#X text 1036 339 5.1535e+06;
#X obj 570 30 r f6;
#X obj 631 31 r f7;
#X obj 706 34 r f8;
#X obj 778 28 r f9;
#X obj 847 31 r f10;
#X obj 227 534 loadbang;
#X msg 227 559 connect 192.168.0.103 8888;
#X obj 354 496 pack 255 0 0 f f f f f f f f f f, f 58;
#X obj 219 243 map 0 1 150 20;
#X obj 262 273 map 0 1 130 10;
#X obj 342 243 map 0 1 120 10;
#X obj 412 273 map 0 1 110 10;
#X obj 482 243 map 0 1 20 150;
#X obj 572 273 map 0 1 10 140;
#X obj 636 243 map 0 1 50 180;
#X obj 711 273 map 0 1 20 170;
#X obj 822 243 map 0 1 70 170;
#X obj 892 273 map 0 1 180 80;
#X obj 22 280 r dance_start;
#X obj 107 188 r dance_stop;
#X obj 19 323 bng 15 250 50 0 empty empty empty 17 7 0 10 #fcfcfc #000000
#000000;
#X msg 20 343 1;
#X msg 45 395 0;
#X obj 46 372 bng 15 250 50 0 empty empty empty 17 7 0 10 #fcfcfc #000000
#000000;
#X obj 298 457 bng 15 250 50 0 empty empty empty 17 7 0 10 #fcfcfc
#000000 #000000;
#X msg 314 383 150;
#X msg 378 373 130;
#X msg 449 379 120;
#X msg 523 378 110;
#X msg 583 378 20;
#X msg 654 379 10;
#X msg 710 378 50;
#X msg 788 383 20;
#X msg 861 383 70;
#X msg 921 386 180;
#X obj 116 243 t b b b b;
#X obj 332 305 bng 15 250 50 0 empty empty empty 17 7 0 10 #fcfcfc
#000000 #000000;
#X obj 32 451 metro 10;
#X msg 226 79 \$1 40;
#X msg 299 75 \$1 40;
#X msg 367 79 \$1 40;
#X msg 440 75 \$1 40;
#X msg 508 80 \$1 40;
#X msg 565 84 \$1 40;
#X msg 638 80 \$1 40;
#X msg 706 84 \$1 40;
#X msg 779 80 \$1 40;
#X msg 847 85 \$1 40;
#X obj 115 215 delay 5;
#X connect 0 0 68 0;
#X connect 1 0 69 0;
#X connect 2 0 70 0;
#X connect 3 0 71 0;
#X connect 4 0 72 0;
#X connect 5 0 37 3;
#X connect 6 0 37 4;
#X connect 7 0 67 0;
#X connect 8 0 37 5;
#X connect 9 0 37 6;
#X connect 10 0 37 7;
#X connect 11 0 38 0;
#X connect 12 0 39 0;
#X connect 13 0 40 0;
#X connect 14 0 41 0;
#X connect 15 0 42 0;
#X connect 16 0 37 8;
#X connect 17 0 37 9;
#X connect 18 0 37 10;
#X connect 19 0 37 11;
#X connect 20 0 37 12;
#X connect 21 0 43 0;
#X connect 22 0 44 0;
#X connect 23 0 45 0;
#X connect 24 0 46 0;
#X connect 26 0 27 0;
#X connect 30 0 73 0;
#X connect 31 0 74 0;
#X connect 32 0 75 0;
#X connect 33 0 76 0;
#X connect 34 0 77 0;
#X connect 34 0 47 0;
#X connect 35 0 36 0;
#X connect 36 0 27 0;
#X connect 37 0 27 0;
#X connect 38 0 5 0;
#X connect 39 0 6 0;
#X connect 40 0 8 0;
#X connect 41 0 9 0;
#X connect 42 0 10 0;
#X connect 43 0 16 0;
#X connect 44 0 17 0;
#X connect 45 0 18 0;
#X connect 46 0 19 0;
#X connect 47 0 20 0;
#X connect 48 0 50 0;
#X connect 49 0 78 0;
#X connect 50 0 51 0;
#X connect 51 0 7 0;
#X connect 52 0 7 0;
#X connect 53 0 52 0;
#X connect 54 0 37 0;
#X connect 55 0 5 0;
#X connect 56 0 6 0;
#X connect 57 0 8 0;
#X connect 58 0 9 0;
#X connect 59 0 10 0;
#X connect 60 0 16 0;
#X connect 61 0 17 0;
#X connect 62 0 18 0;
#X connect 63 0 19 0;
#X connect 64 0 20 0;
#X connect 65 0 54 0;
#X connect 65 1 54 0;
#X connect 65 2 66 0;
#X connect 65 3 53 0;
#X connect 66 0 55 0;
#X connect 66 0 56 0;
#X connect 66 0 57 0;
#X connect 66 0 58 0;
#X connect 66 0 59 0;
#X connect 66 0 60 0;
#X connect 66 0 61 0;
#X connect 66 0 62 0;
#X connect 66 0 63 0;
#X connect 66 0 64 0;
#X connect 67 0 37 0;
#X connect 68 0 11 0;
#X connect 69 0 12 0;
#X connect 70 0 13 0;
#X connect 71 0 14 0;
#X connect 72 0 15 0;
#X connect 73 0 21 0;
#X connect 74 0 22 0;
#X connect 75 0 23 0;
#X connect 76 0 24 0;
#X connect 77 0 25 0;
#X connect 78 0 65 0;
