#N canvas 242 68 1013 572 10;
#X obj 52 177 inlet;
#X obj 92 177 inlet;
#X obj 292 177 inlet;
#X obj 332 177 inlet;
#X obj 372 177 inlet;
#X obj 412 177 inlet;
#X text 52 156 s6;
#X text 91 156 s7;
#X text 293 156 s1;
#X text 333 156 s2;
#X text 374 156 s3;
#X text 415 156 s4;
#X obj 452 177 inlet;
#X text 455 156 s5;
#X obj 57 56 hradio 15 1 0 12 empty empty robot_no. 0 -8 0 10 -262144
-1 -1 1;
#X obj 57 76 + 1;
#X floatatom 85 77 5 0 0 0 - - -;
#X obj 251 56 tgl 15 0 empty empty enable 17 7 0 10 -262144 -1 -1 0
1;
#X obj 251 76 s node-osc-enable;
#X obj 52 395 send;
#X obj 52 328 spigot;
#X obj 85 285 r node-osc-enable;
#X obj 85 308 tgl 15 0 empty empty empty 17 7 0 10 -262144 -1 -1 0
1;
#X msg 73 373 symbol \$1-wrist;
#X obj 54 530 send;
#X obj 54 463 spigot;
#X obj 87 420 r node-osc-enable;
#X obj 87 443 tgl 15 0 empty empty empty 17 7 0 10 -262144 -1 -1 0
1;
#X obj 549 397 send;
#X obj 549 330 spigot;
#X obj 582 287 r node-osc-enable;
#X obj 582 310 tgl 15 0 empty empty empty 17 7 0 10 -262144 -1 -1 0
1;
#X msg 75 508 symbol \$1-wrist-roll;
#X obj 72 351 r robot_no;
#X obj 84 97 s robot_no;
#X obj 74 486 r robot_no;
#X obj 569 353 r robot_no;
#X msg 570 375 symbol \$1-finger-1;
#X obj 699 397 send;
#X obj 699 330 spigot;
#X obj 732 287 r node-osc-enable;
#X obj 732 310 tgl 15 0 empty empty empty 17 7 0 10 -262144 -1 -1 0
1;
#X obj 719 353 r robot_no;
#X obj 859 397 send;
#X obj 859 330 spigot;
#X obj 892 287 r node-osc-enable;
#X obj 892 310 tgl 15 0 empty empty empty 17 7 0 10 -262144 -1 -1 0
1;
#X obj 879 353 r robot_no;
#X obj 549 537 send;
#X obj 549 470 spigot;
#X obj 582 427 r node-osc-enable;
#X obj 582 450 tgl 15 0 empty empty empty 17 7 0 10 -262144 -1 -1 0
1;
#X obj 569 493 r robot_no;
#X obj 709 537 send;
#X obj 709 470 spigot;
#X obj 742 427 r node-osc-enable;
#X obj 742 450 tgl 15 0 empty empty empty 17 7 0 10 -262144 -1 -1 0
1;
#X obj 729 493 r robot_no;
#X msg 570 515 symbol \$1-finger-4;
#X msg 730 515 symbol \$1-finger-5;
#X msg 880 375 symbol \$1-finger-3;
#X msg 720 375 symbol \$1-finger-2;
#X obj 251 0 loadbang;
#X msg 251 21 0;
#X obj 132 177 inlet;
#X obj 172 177 inlet;
#X text 135 156 s8;
#X text 175 156 s9;
#X obj 212 177 inlet;
#X text 215 156 s10;
#X obj 388 525 send;
#X obj 388 458 spigot;
#X obj 421 415 r node-osc-enable;
#X obj 421 438 tgl 15 0 empty empty empty 17 7 0 10 -262144 -1 -1 0
1;
#X obj 408 481 r robot_no;
#X obj 388 391 send;
#X obj 388 324 spigot;
#X obj 421 281 r node-osc-enable;
#X obj 421 304 tgl 15 0 empty empty empty 17 7 0 10 -262144 -1 -1 0
1;
#X obj 408 347 r robot_no;
#X msg 410 503 symbol \$1-sh-9;
#X msg 409 369 symbol \$1-sh-10;
#X obj 217 391 send;
#X obj 217 324 spigot;
#X obj 250 281 r node-osc-enable;
#X obj 250 304 tgl 15 0 empty empty empty 17 7 0 10 -262144 -1 -1 0
1;
#X obj 237 347 r robot_no;
#X msg 238 369 symbol \$1-st2;
#X obj 519 6 inlet;
#X obj 560 5 inlet;
#X connect 0 0 20 0;
#X connect 1 0 25 0;
#X connect 2 0 29 0;
#X connect 3 0 39 0;
#X connect 4 0 44 0;
#X connect 5 0 49 0;
#X connect 12 0 54 0;
#X connect 14 0 15 0;
#X connect 15 0 16 0;
#X connect 16 0 34 0;
#X connect 17 0 18 0;
#X connect 20 0 19 0;
#X connect 21 0 22 0;
#X connect 22 0 20 1;
#X connect 23 0 19 1;
#X connect 25 0 24 0;
#X connect 26 0 27 0;
#X connect 27 0 25 1;
#X connect 29 0 28 0;
#X connect 30 0 31 0;
#X connect 31 0 29 1;
#X connect 32 0 24 1;
#X connect 33 0 23 0;
#X connect 35 0 32 0;
#X connect 36 0 37 0;
#X connect 37 0 28 1;
#X connect 39 0 38 0;
#X connect 40 0 41 0;
#X connect 41 0 39 1;
#X connect 42 0 61 0;
#X connect 44 0 43 0;
#X connect 45 0 46 0;
#X connect 46 0 44 1;
#X connect 47 0 60 0;
#X connect 49 0 48 0;
#X connect 50 0 51 0;
#X connect 51 0 49 1;
#X connect 52 0 58 0;
#X connect 54 0 53 0;
#X connect 55 0 56 0;
#X connect 56 0 54 1;
#X connect 57 0 59 0;
#X connect 58 0 48 1;
#X connect 59 0 53 1;
#X connect 60 0 43 1;
#X connect 61 0 38 1;
#X connect 62 0 63 0;
#X connect 63 0 17 0;
#X connect 63 0 16 0;
#X connect 64 0 83 0;
#X connect 65 0 71 0;
#X connect 68 0 76 0;
#X connect 71 0 70 0;
#X connect 72 0 73 0;
#X connect 73 0 71 1;
#X connect 74 0 80 0;
#X connect 76 0 75 0;
#X connect 77 0 78 0;
#X connect 78 0 76 1;
#X connect 79 0 81 0;
#X connect 80 0 70 1;
#X connect 81 0 75 1;
#X connect 83 0 82 0;
#X connect 84 0 85 0;
#X connect 85 0 83 1;
#X connect 86 0 87 0;
#X connect 87 0 82 1;
#X connect 88 0 14 0;
#X connect 89 0 17 0;
#X coords 0 -1 1 1 270 70 1 50 30;
