#N canvas 449 113 991 504 10;
#X obj 36 10 inlet;
#X obj 120 10 inlet;
#X obj 204 10 inlet;
#X obj 290 9 loadbang;
#X obj 36 459 outlet;
#X floatatom 36 213 5 0 0 0 - - -;
#X floatatom 120 213 5 0 0 0 - - -;
#X floatatom 204 213 5 0 0 0 - - -;
#X obj 290 114 vsl 15 128 0 1 0 0 empty empty empty 0 -9 0 10 -262144
-1 -1 12700 1;
#X obj 330 114 vsl 15 128 0 1 0 0 empty empty empty 0 -9 0 10 -262144
-1 -1 12700 1;
#X obj 370 114 vsl 15 128 0 1 0 0 empty empty empty 0 -9 0 10 -262144
-1 -1 12700 1;
#X floatatom 290 250 5 0 0 0 - - -;
#X floatatom 330 250 5 0 0 0 - - -;
#X floatatom 370 250 5 0 0 0 - - -;
#X obj 36 323 *;
#X obj 120 323 *;
#X obj 205 323 *;
#X floatatom 36 344 5 0 0 0 - - -;
#X floatatom 120 344 5 0 0 0 - - -;
#X floatatom 205 344 5 0 0 0 - - -;
#X obj 330 300 t b f;
#X obj 370 300 t b f;
#X obj 290 358 pack f f f;
#X obj 290 379 sum;
#X obj 36 364 pack f f f;
#X obj 36 385 sum;
#X obj 36 406 /;
#X obj 290 76 unpack f f f;
#X text 345 54 initial mix values;
#X obj 36 161 clip 0 1;
#X obj 120 161 clip 0 1;
#X obj 204 161 clip 0 1;
#X obj 204 192 /;
#X obj 120 192 /;
#X obj 36 192 /;
#X obj 134 73 unpack f f f;
#X obj 81 121 t f f;
#X obj 165 121 t f f;
#X obj 239 121 t f f;
#X floatatom 81 100 5 0 0 0 - - -;
#X floatatom 165 100 5 0 0 0 - - -;
#X floatatom 239 100 5 0 0 0 - - -;
#X text 397 29 initial clip values;
#X msg 301 31 0.25 0.28 0.7;
#X msg 290 55 1 1 1;
#X connect 0 0 29 0;
#X connect 1 0 30 0;
#X connect 2 0 31 0;
#X connect 3 0 44 0;
#X connect 3 0 43 0;
#X connect 5 0 14 0;
#X connect 6 0 15 0;
#X connect 7 0 16 0;
#X connect 8 0 11 0;
#X connect 9 0 12 0;
#X connect 10 0 13 0;
#X connect 11 0 14 1;
#X connect 11 0 22 0;
#X connect 12 0 20 0;
#X connect 13 0 21 0;
#X connect 14 0 17 0;
#X connect 15 0 18 0;
#X connect 16 0 19 0;
#X connect 17 0 24 0;
#X connect 18 0 24 1;
#X connect 19 0 24 2;
#X connect 20 0 8 0;
#X connect 20 1 15 1;
#X connect 20 1 22 1;
#X connect 21 0 8 0;
#X connect 21 1 16 1;
#X connect 21 1 22 2;
#X connect 22 0 23 0;
#X connect 23 0 26 1;
#X connect 24 0 25 0;
#X connect 25 0 26 0;
#X connect 26 0 4 0;
#X connect 27 0 8 0;
#X connect 27 1 9 0;
#X connect 27 2 10 0;
#X connect 29 0 34 0;
#X connect 30 0 33 0;
#X connect 31 0 32 0;
#X connect 32 0 7 0;
#X connect 33 0 6 0;
#X connect 34 0 5 0;
#X connect 35 0 39 0;
#X connect 35 1 40 0;
#X connect 35 2 41 0;
#X connect 36 0 29 2;
#X connect 36 1 34 1;
#X connect 37 0 30 2;
#X connect 37 1 33 1;
#X connect 38 0 31 2;
#X connect 38 1 32 1;
#X connect 39 0 36 0;
#X connect 40 0 37 0;
#X connect 41 0 38 0;
#X connect 43 0 35 0;
#X connect 44 0 27 0;
#X coords 0 -1 1 1 140 190 1 280 90;
