#N canvas 0 23 989 441 10;
#X obj 121 222 udpsend;
#X obj 63 34 inlet;
#X obj 121 140 inlet;
#X msg 118 75 255 0 0 0 100 1 1 11 186 1 17 1 60 1 76 1 166 1 216 1
125 2 41 1 245 1 127 1 120 1 115 1 80 0 0 0 0 0 0;
#X obj 118 51 prepend set;
#X obj 63 260 bng 15 250 50 0 empty empty empty 17 7 0 10 -262144 -1
-1;
#X obj 63 283 outlet;
#X obj 122 244 tgl 15 0 empty empty empty 17 7 0 10 -262144 -1 -1 0
1;
#X obj 152 282 outlet;
#X obj 63 222 spigot;
#X obj 96 203 tgl 15 0 empty empty empty 17 7 0 10 -262144 -1 -1 0
1;
#X text 554 74 255 mode r_id t(t1 \, t2) a1 a2 st1_1 st1_2 s1_1 s1_2
s2_1 s2_2 ............... s13_1 s13_2 e1_1 e1_2 e2_1 e2_2;
#X text 167 137 udp_cn : direct message without control to connect
or disconnect UDP;
#X text 117 29 data to arduino;
#X msg 182 190 255 0 0 0 100 1 1 11 186 1 17 1 60 1 76 1 166 1 216
1 125 2 41 1 245 1 127 1 120 1 115 1 80 0 0 0 0 0 0;
#X obj 182 166 prepend set;
#X obj 257 253 delay 1000;
#X msg 257 275 255 1;
#X text 305 276 when connecting or disconnecting UDP \, awake arduino
first;
#X obj 257 235 bng 15 250 50 0 empty empty empty 17 7 0 10 -262144
-1 -1;
#X connect 0 0 7 0;
#X connect 1 0 4 0;
#X connect 1 0 5 0;
#X connect 1 0 9 0;
#X connect 2 0 0 0;
#X connect 2 0 15 0;
#X connect 2 0 19 0;
#X connect 4 0 3 0;
#X connect 5 0 6 0;
#X connect 7 0 8 0;
#X connect 7 0 10 0;
#X connect 9 0 0 0;
#X connect 10 0 9 1;
#X connect 15 0 14 0;
#X connect 16 0 17 0;
#X connect 17 0 0 0;
#X connect 19 0 16 0;
