#N canvas 546 0 1174 845 12;
#X msg 296 649 devices;
#X msg 400 659 open 7;
#X obj 282 720 comport 7 57600;
#X obj 295 254 vsl 19 162 180 0 0 0 empty empty empty 0 -9 0 12 #0400ff #000000 #000000 0 1;
#X floatatom 301 555 5 0 0 0 - - - 0;
#X obj 296 518 int;
#X obj 345 254 vsl 19 162 180 0 0 0 empty empty empty 0 -9 0 12 #0400ff #000000 #000000 0 1;
#X floatatom 351 555 5 0 0 0 - - - 0;
#X obj 346 518 int;
#X obj 398 252 vsl 19 162 180 0 0 0 empty empty empty 0 -9 0 12 #0400ff #000000 #000000 0 1;
#X floatatom 404 553 5 0 0 0 - - - 0;
#X obj 404 515 int;
#X obj 453 253 vsl 19 162 180 0 0 0 empty empty empty 0 -9 0 12 #0400ff #000000 #000000 0 1;
#X floatatom 459 554 5 0 0 0 - - - 0;
#X obj 454 517 int;
#X obj 511 253 vsl 19 162 0 180 0 0 empty empty empty 0 -9 0 12 #0400ff #000000 #000000 0 1;
#X floatatom 517 554 5 0 0 0 - - - 0;
#X obj 512 517 int;
#X obj 628 256 vsl 19 162 0 180 0 0 empty empty empty 0 -9 0 12 #ff0400 #000000 #000000 0 1;
#X floatatom 627 555 5 0 0 0 - - - 0;
#X obj 629 520 int;
#X obj 688 256 vsl 19 162 0 180 0 0 empty empty empty 0 -9 0 12 #ff0400 #000000 #000000 0 1;
#X floatatom 687 555 5 0 0 0 - - - 0;
#X obj 689 520 int;
#X obj 737 258 vsl 19 162 0 180 0 0 empty empty empty 0 -9 0 12 #ff0400 #000000 #000000 0 1;
#X floatatom 736 557 5 0 0 0 - - - 0;
#X obj 738 522 int;
#X obj 792 258 vsl 19 162 0 180 0 0 empty empty empty 0 -9 0 12 #ff0400 #000000 #000000 0 1;
#X floatatom 790 554 5 0 0 0 - - - 0;
#X obj 793 522 int;
#X obj 843 257 vsl 19 162 180 0 0 0 empty empty empty 0 -9 0 12 #ff0400 #000000 #000000 0 1;
#X floatatom 842 556 5 0 0 0 - - - 0;
#X obj 844 521 int;
#X obj 218 516 metro 20;
#X obj 245 559 bng 19 250 50 0 empty empty empty 0 -10 0 12 #fcfcfc #000000 #000000;
#X obj 217 454 tgl 19 0 empty empty empty 0 -10 0 12 #fcfcfc #000000 #000000 0 1;
#X obj 282 606 pack 255 f f f f f, f 27;
#X msg 702 642 devices;
#X obj 662 605 pack 255 f f f f f, f 27;
#X msg 806 652 open 8;
#X obj 688 712 comport 8 57600;
#X obj 912 526 metro 20;
#X obj 939 569 bng 19 250 50 0 empty empty empty 0 -10 0 12 #fcfcfc #000000 #000000;
#X obj 911 464 tgl 19 0 empty empty empty 0 -10 0 12 #fcfcfc #000000 #000000 0 1;
#X connect 0 0 2 0;
#X connect 1 0 2 0;
#X connect 3 0 5 0;
#X connect 4 0 36 1;
#X connect 5 0 4 0;
#X connect 6 0 8 0;
#X connect 7 0 36 2;
#X connect 8 0 7 0;
#X connect 9 0 11 0;
#X connect 10 0 36 3;
#X connect 11 0 10 0;
#X connect 12 0 14 0;
#X connect 13 0 36 4;
#X connect 14 0 13 0;
#X connect 15 0 17 0;
#X connect 16 0 36 5;
#X connect 17 0 16 0;
#X connect 18 0 20 0;
#X connect 19 0 38 1;
#X connect 20 0 19 0;
#X connect 21 0 23 0;
#X connect 22 0 38 2;
#X connect 23 0 22 0;
#X connect 24 0 26 0;
#X connect 25 0 38 3;
#X connect 26 0 25 0;
#X connect 27 0 29 0;
#X connect 28 0 38 4;
#X connect 29 0 28 0;
#X connect 30 0 32 0;
#X connect 31 0 38 5;
#X connect 32 0 31 0;
#X connect 33 0 34 0;
#X connect 34 0 36 0;
#X connect 35 0 33 0;
#X connect 36 0 2 0;
#X connect 37 0 40 0;
#X connect 38 0 40 0;
#X connect 39 0 40 0;
#X connect 41 0 42 0;
#X connect 42 0 38 0;
#X connect 43 0 41 0;
