#N canvas 797 56 1032 750 12;
#X obj 163 78 vsl 19 162 180 0 0 0 empty empty empty 0 -9 0 12 #0400ff #000000 #000000 0 1;
#X floatatom 168 380 5 0 0 0 - - - 0;
#X obj 163 343 int;
#X obj 213 79 vsl 19 162 180 0 0 0 empty empty empty 0 -9 0 12 #0400ff #000000 #000000 0 1;
#X floatatom 218 380 5 0 0 0 - - - 0;
#X obj 213 343 int;
#X obj 271 78 vsl 19 162 180 0 0 0 empty empty empty 0 -9 0 12 #0400ff #000000 #000000 0 1;
#X floatatom 271 378 5 0 0 0 - - - 0;
#X obj 271 340 int;
#X obj 321 78 vsl 19 162 180 0 0 0 empty empty empty 0 -9 0 12 #0400ff #000000 #000000 0 1;
#X floatatom 326 379 5 0 0 0 - - - 0;
#X obj 321 342 int;
#X obj 379 78 vsl 19 162 0 180 0 0 empty empty empty 0 -9 0 12 #0400ff #000000 #000000 0 1;
#X floatatom 384 379 5 0 0 0 - - - 0;
#X obj 379 342 int;
#X obj 496 81 vsl 19 162 0 180 0 0 empty empty empty 0 -9 0 12 #ff0400 #000000 #000000 0 1;
#X floatatom 494 380 5 0 0 0 - - - 0;
#X obj 496 345 int;
#X obj 556 81 vsl 19 162 0 180 0 0 empty empty empty 0 -9 0 12 #ff0400 #000000 #000000 0 1;
#X floatatom 554 380 5 0 0 0 - - - 0;
#X obj 556 345 int;
#X obj 605 83 vsl 19 162 0 180 0 0 empty empty empty 0 -9 0 12 #ff0400 #000000 #000000 0 1;
#X floatatom 603 382 5 0 0 0 - - - 0;
#X obj 605 347 int;
#X obj 660 83 vsl 19 162 0 180 0 0 empty empty empty 0 -9 0 12 #ff0400 #000000 #000000 0 1;
#X floatatom 657 379 5 0 0 0 - - - 0;
#X obj 660 347 int;
#X obj 711 82 vsl 19 162 180 0 0 0 empty empty empty 0 -9 0 12 #ff0400 #000000 #000000 0 1;
#X floatatom 709 381 5 0 0 0 - - - 0;
#X obj 711 346 int;
#X obj 362 624 netsend -u -b;
#X msg 391 590 connect 192.168.0.103;
#X obj 281 555 pack 255 0 0 f f f f f f f f f f;
#X obj 85 341 metro 20;
#X obj 112 384 bng 19 250 50 0 empty empty empty 0 -10 0 12 #fcfcfc #000000 #000000;
#X obj 84 279 tgl 19 0 empty empty empty 0 -10 0 12 #fcfcfc #000000 #000000 0 1;
#X connect 0 0 2 0;
#X connect 1 0 32 3;
#X connect 2 0 1 0;
#X connect 3 0 5 0;
#X connect 4 0 32 4;
#X connect 5 0 4 0;
#X connect 6 0 8 0;
#X connect 7 0 32 5;
#X connect 8 0 7 0;
#X connect 9 0 11 0;
#X connect 10 0 32 6;
#X connect 11 0 10 0;
#X connect 12 0 14 0;
#X connect 13 0 32 7;
#X connect 14 0 13 0;
#X connect 15 0 17 0;
#X connect 16 0 32 8;
#X connect 17 0 16 0;
#X connect 18 0 20 0;
#X connect 19 0 32 9;
#X connect 20 0 19 0;
#X connect 21 0 23 0;
#X connect 22 0 32 10;
#X connect 23 0 22 0;
#X connect 24 0 26 0;
#X connect 25 0 32 11;
#X connect 26 0 25 0;
#X connect 27 0 29 0;
#X connect 28 0 32 12;
#X connect 29 0 28 0;
#X connect 31 0 30 0;
#X connect 32 0 30 0;
#X connect 33 0 34 0;
#X connect 34 0 32 0;
#X connect 35 0 33 0;
