#N canvas 104 155 1174 845 12;
#X msg 296 649 devices;
#X obj 282 720 comport 7 57600;
#X obj 295 254 vsl 19 162 0 180 0 0 empty empty empty 0 -9 0 12 #0400ff #000000 #000000 0 1;
#X floatatom 301 555 5 0 0 0 - - - 0;
#X obj 296 518 int;
#X obj 345 254 vsl 19 162 0 180 0 0 empty empty empty 0 -9 0 12 #0400ff #000000 #000000 0 1;
#X floatatom 351 555 5 0 0 0 - - - 0;
#X obj 346 518 int;
#X obj 398 252 vsl 19 162 0 180 0 0 empty empty empty 0 -9 0 12 #0400ff #000000 #000000 0 1;
#X floatatom 404 553 5 0 0 0 - - - 0;
#X obj 404 515 int;
#X obj 453 253 vsl 19 162 0 180 0 0 empty empty empty 0 -9 0 12 #0400ff #000000 #000000 0 1;
#X floatatom 459 554 5 0 0 0 - - - 0;
#X obj 454 517 int;
#X obj 511 253 vsl 19 162 0 180 0 0 empty empty empty 0 -9 0 12 #0400ff #000000 #000000 0 1;
#X floatatom 517 554 5 0 0 0 - - - 0;
#X obj 512 517 int;
#X obj 706 245 vsl 19 162 0 180 0 0 empty empty empty 0 -9 0 12 #ff0400 #000000 #000000 0 1;
#X floatatom 705 544 5 0 0 0 - - - 0;
#X obj 707 509 int;
#X obj 766 245 vsl 19 162 0 180 0 0 empty empty empty 0 -9 0 12 #ff0400 #000000 #000000 0 1;
#X floatatom 765 544 5 0 0 0 - - - 0;
#X obj 767 509 int;
#X obj 815 247 vsl 19 162 0 180 0 0 empty empty empty 0 -9 0 12 #ff0400 #000000 #000000 0 1;
#X floatatom 814 546 5 0 0 0 - - - 0;
#X obj 816 511 int;
#X obj 870 247 vsl 19 162 0 180 0 0 empty empty empty 0 -9 0 12 #ff0400 #000000 #000000 0 1;
#X floatatom 868 543 5 0 0 0 - - - 0;
#X obj 871 511 int;
#X obj 921 246 vsl 19 162 180 0 0 0 empty empty empty 0 -9 0 12 #ff0400 #000000 #000000 0 1;
#X floatatom 920 545 5 0 0 0 - - - 0;
#X obj 922 510 int;
#X obj 218 516 metro 20;
#X obj 245 559 bng 19 250 50 0 empty empty empty 0 -10 0 12 #fcfcfc #000000 #000000;
#X obj 217 454 tgl 19 0 empty empty empty 0 -10 0 12 #fcfcfc #000000 #000000 0 1;
#X obj 282 606 pack 255 f f f f f, f 27;
#X msg 780 631 devices;
#X obj 740 594 pack 255 f f f f f, f 27;
#X msg 884 641 open 8;
#X obj 766 701 comport 8 57600;
#X obj 617 585 metro 20;
#X obj 644 628 bng 19 250 50 0 empty empty empty 0 -10 0 12 #fcfcfc #000000 #000000;
#X obj 616 523 tgl 19 0 empty empty empty 0 -10 0 12 #fcfcfc #000000 #000000 0 1;
#X msg 400 659 open 0;
#X floatatom 285 83 5 0 0 0 - f1 - 0;
#X obj 295 208 * 180;
#X floatatom 345 86 5 0 0 0 - f2 - 0;
#X obj 345 207 * 180;
#X floatatom 411 82 5 0 0 0 - f3 - 0;
#X obj 398 207 * 180;
#X floatatom 466 81 5 0 0 0 - f4 - 0;
#X obj 453 206 * 180;
#X floatatom 534 168 5 0 0 0 - f5 - 0;
#X obj 511 207 * 180;
#X obj 345 112 - 1;
#X obj 345 141 * -1;
#X floatatom 345 169 5 0 0 0 - - - 0;
#X obj 291 112 - 1;
#X obj 291 141 * -1;
#X floatatom 291 169 5 0 0 0 - - - 0;
#X obj 407 110 - 1;
#X obj 407 139 * -1;
#X floatatom 407 167 5 0 0 0 - - - 0;
#X obj 461 112 - 1;
#X obj 461 141 * -1;
#X floatatom 461 169 5 0 0 0 - - - 0;
#X floatatom 700 170 5 0 0 0 - f1 - 0;
#X floatatom 760 173 5 0 0 0 - f2 - 0;
#X floatatom 813 169 5 0 0 0 - f3 - 0;
#X floatatom 864 171 5 0 0 0 - f4 - 0;
#X obj 704 206 * 180;
#X obj 754 205 * 180;
#X obj 807 205 * 180;
#X obj 862 204 * 180;
#X obj 920 205 * 180;
#X obj 918 117 - 1;
#X obj 918 146 * -1;
#X floatatom 918 174 5 0 0 0 - - - 0;
#X floatatom 916 87 5 0 0 0 - f5 - 0;
#X connect 0 0 1 0;
#X connect 2 0 4 0;
#X connect 3 0 35 1;
#X connect 4 0 3 0;
#X connect 5 0 7 0;
#X connect 6 0 35 2;
#X connect 7 0 6 0;
#X connect 8 0 10 0;
#X connect 9 0 35 3;
#X connect 10 0 9 0;
#X connect 11 0 13 0;
#X connect 12 0 35 4;
#X connect 13 0 12 0;
#X connect 14 0 16 0;
#X connect 15 0 35 5;
#X connect 16 0 15 0;
#X connect 17 0 19 0;
#X connect 18 0 37 1;
#X connect 19 0 18 0;
#X connect 20 0 22 0;
#X connect 21 0 37 2;
#X connect 22 0 21 0;
#X connect 23 0 25 0;
#X connect 24 0 37 3;
#X connect 25 0 24 0;
#X connect 26 0 28 0;
#X connect 27 0 37 4;
#X connect 28 0 27 0;
#X connect 29 0 31 0;
#X connect 30 0 37 5;
#X connect 31 0 30 0;
#X connect 32 0 33 0;
#X connect 33 0 35 0;
#X connect 34 0 32 0;
#X connect 35 0 1 0;
#X connect 36 0 39 0;
#X connect 37 0 39 0;
#X connect 38 0 39 0;
#X connect 40 0 41 0;
#X connect 41 0 37 0;
#X connect 42 0 40 0;
#X connect 43 0 1 0;
#X connect 44 0 57 0;
#X connect 45 0 2 0;
#X connect 46 0 54 0;
#X connect 47 0 5 0;
#X connect 48 0 60 0;
#X connect 49 0 8 0;
#X connect 50 0 63 0;
#X connect 51 0 11 0;
#X connect 52 0 53 0;
#X connect 53 0 14 0;
#X connect 54 0 55 0;
#X connect 55 0 56 0;
#X connect 56 0 47 0;
#X connect 57 0 58 0;
#X connect 58 0 59 0;
#X connect 59 0 45 0;
#X connect 60 0 61 0;
#X connect 61 0 62 0;
#X connect 62 0 49 0;
#X connect 63 0 64 0;
#X connect 64 0 65 0;
#X connect 65 0 51 0;
#X connect 66 0 70 0;
#X connect 67 0 71 0;
#X connect 68 0 72 0;
#X connect 69 0 73 0;
#X connect 70 0 17 0;
#X connect 71 0 20 0;
#X connect 72 0 23 0;
#X connect 73 0 26 0;
#X connect 74 0 29 0;
#X connect 75 0 76 0;
#X connect 76 0 77 0;
#X connect 77 0 74 0;
#X connect 78 0 75 0;
