#N canvas 388 185 1920 1007 12;
#X msg 202 648 devices;
#X msg 306 658 open 7;
#X obj 188 719 comport 7 57600;
#X obj 282 606 pack 255 f f f f f f f f f f, f 76;
#X obj 396 290 vsl 19 162 0 180 0 0 empty empty empty 0 -9 0 12 #fcfcfc #000000 #000000 0 1;
#X floatatom 402 507 5 0 0 0 - - - 0;
#X obj 397 470 int;
#X obj 446 290 vsl 19 162 0 180 0 0 empty empty empty 0 -9 0 12 #fcfcfc #000000 #000000 0 1;
#X floatatom 452 507 5 0 0 0 - - - 0;
#X obj 447 470 int;
#X obj 499 288 vsl 19 162 0 180 0 0 empty empty empty 0 -9 0 12 #fcfcfc #000000 #000000 0 1;
#X floatatom 505 505 5 0 0 0 - - - 0;
#X obj 500 468 int;
#X obj 554 289 vsl 19 162 0 180 0 0 empty empty empty 0 -9 0 12 #fcfcfc #000000 #000000 0 1;
#X floatatom 560 506 5 0 0 0 - - - 0;
#X obj 555 469 int;
#X obj 612 289 vsl 19 162 0 180 0 0 empty empty empty 0 -9 0 12 #fcfcfc #000000 #000000 0 1;
#X floatatom 618 506 5 0 0 0 - - - 0;
#X obj 613 469 int;
#X obj 669 286 vsl 19 162 0 180 0 0 empty empty empty 0 -9 0 12 #fcfcfc #000000 #000000 0 1;
#X floatatom 675 503 5 0 0 0 - - - 0;
#X obj 670 466 int;
#X obj 729 286 vsl 19 162 0 180 0 0 empty empty empty 0 -9 0 12 #fcfcfc #000000 #000000 0 1;
#X floatatom 735 503 5 0 0 0 - - - 0;
#X obj 730 466 int;
#X obj 778 288 vsl 19 162 0 180 0 0 empty empty empty 0 -9 0 12 #fcfcfc #000000 #000000 0 1;
#X floatatom 784 505 5 0 0 0 - - - 0;
#X obj 779 468 int;
#X obj 833 288 vsl 19 162 0 180 0 0 empty empty empty 0 -9 0 12 #fcfcfc #000000 #000000 0 1;
#X floatatom 839 505 5 0 0 0 - - - 0;
#X obj 834 468 int;
#X obj 884 287 vsl 19 162 0 180 0 0 empty empty empty 0 -9 0 12 #fcfcfc #000000 #000000 0 1;
#X floatatom 890 504 5 0 0 0 - - - 0;
#X obj 885 467 int;
#X obj 218 516 metro 20;
#X obj 245 559 bng 19 250 50 0 empty empty empty 0 -10 0 12 #fcfcfc #000000 #000000;
#X obj 217 454 tgl 19 0 empty empty empty 0 -10 0 12 #fcfcfc #000000 #000000 0 1;
#X obj 396 118 vsl 19 162 50 180 0 0 empty empty empty 0 -9 0 12 #fcfcfc #000000 #000000 0 1;
#X connect 0 0 2 0;
#X connect 1 0 2 0;
#X connect 3 0 2 0;
#X connect 4 0 6 0;
#X connect 5 0 3 1;
#X connect 6 0 5 0;
#X connect 7 0 9 0;
#X connect 8 0 3 2;
#X connect 9 0 8 0;
#X connect 10 0 12 0;
#X connect 11 0 3 3;
#X connect 12 0 11 0;
#X connect 13 0 15 0;
#X connect 14 0 3 4;
#X connect 15 0 14 0;
#X connect 16 0 18 0;
#X connect 17 0 3 5;
#X connect 18 0 17 0;
#X connect 19 0 21 0;
#X connect 20 0 3 6;
#X connect 21 0 20 0;
#X connect 22 0 24 0;
#X connect 23 0 3 7;
#X connect 24 0 23 0;
#X connect 25 0 27 0;
#X connect 26 0 3 8;
#X connect 27 0 26 0;
#X connect 28 0 30 0;
#X connect 29 0 3 9;
#X connect 30 0 29 0;
#X connect 31 0 33 0;
#X connect 32 0 3 10;
#X connect 33 0 32 0;
#X connect 34 0 35 0;
#X connect 35 0 3 0;
#X connect 36 0 34 0;
#X connect 37 0 4 0;
