#N canvas 763 102 840 770 10;
#X obj 37 37 udpreceive 3000;
#X obj 37 58 unpackOSC;
#X floatatom 90 88 5 0 0 0 - - -;
#X symbolatom 45 171 10 0 0 0 - - -;
#X floatatom 70 205 5 0 0 0 - - -;
#X text 317 31 get range for each joint;
#X text 350 52 thumb 0.75 0.72 0.3;
#X text 286 73 index and others 0.2 0.1 0.4;
#X obj 68 113 routeOSC /hand;
#X obj 55 406 vsl 15 128 0 1 0 0 empty empty empty 0 -9 0 10 -262144
-1 -1 6346 1;
#X symbolatom 117 170 10 0 0 0 - - -;
#X floatatom 149 202 5 0 0 0 - - -;
#X obj 135 409 vsl 15 128 0 1 0 0 empty empty empty 0 -9 0 10 -262144
-1 -1 9172 1;
#X obj 474 113 routeOSC /fingers/processed;
#X obj 474 164 unpack s f s f s f s f s f, f 52;
#X obj 490 272 vsl 15 128 0 1 0 0 empty empty empty 0 -9 0 10 -262144
-1 -1 1719 1;
#X obj 561 272 vsl 15 128 0 1 0 0 empty empty empty 0 -9 0 10 -262144
-1 -1 7665 1;
#X obj 628 272 vsl 15 128 0 1 0 0 empty empty empty 0 -9 0 10 -262144
-1 -1 7481 1;
#X obj 662 272 vsl 15 128 0 1 0 0 empty empty empty 0 -9 0 10 -262144
-1 -1 7580 1;
#X obj 702 272 vsl 15 128 0 1 0 0 empty empty empty 0 -9 0 10 -262144
-1 -1 7765 1;
#X symbolatom 457 206 10 0 0 0 - - -;
#X symbolatom 526 206 10 0 0 0 - - -;
#X symbolatom 597 206 10 0 0 0 - - -;
#X symbolatom 681 209 10 0 0 0 - - -;
#X symbolatom 757 206 10 0 0 0 - - -;
#X floatatom 490 408 5 0 0 0 - - -;
#X floatatom 561 408 5 0 0 0 - - -;
#X floatatom 628 408 5 0 0 0 - - -;
#X floatatom 662 408 5 0 0 0 - - -;
#X floatatom 702 408 5 0 0 0 - - -;
#X obj 264 608 node-osc-robot-select;
#X obj 55 228 - 0.2;
#X obj 55 249 clip 0 1;
#X obj 455 238 - 1;
#X obj 455 259 * -1;
#X obj 154 221 moses 0.6;
#X obj 138 309 + 0.6;
#X obj 193 324 * 1.5;
#X floatatom 138 379 5 0 0 0 - - -;
#X obj 193 303 - 0.59;
#X floatatom 143 339 5 0 0 0 - - -;
#X floatatom 193 345 5 0 0 0 - - -;
#X obj 129 242 moses 0.2;
#X obj 138 282 * 2;
#X symbolatom 195 172 10 0 0 0 - - -;
#X symbolatom 284 172 10 0 0 0 - - -;
#X floatatom 238 204 5 0 0 0 - - -;
#X floatatom 309 204 5 0 0 0 - - -;
#X obj 68 143 unpack s f s f s f s f s f, f 28;
#X symbolatom 357 171 10 0 0 0 - - -;
#X floatatom 364 207 5 0 0 0 - - -;
#X obj 364 227 clip -100 100;
#X obj 364 248 + 100;
#X obj 364 269 / 200;
#X obj 364 290 clip 0.2 0.7;
#X floatatom 364 311 5 0 0 0 - - -;
#X obj 355 389 vsl 15 128 0 1 0 0 empty empty empty 0 -9 0 10 -262144
-1 -1 8890 1;
#X obj 279 236 clip -50 50;
#X obj 278 257 + 50;
#X obj 278 278 / 100;
#X floatatom 278 299 5 0 0 0 - - -;
#X obj 292 388 vsl 15 128 0 1 0 0 empty empty empty 0 -9 0 10 -262144
-1 -1 900 1;
#X obj 278 319 - 1;
#X obj 278 340 * -1;
#X connect 0 0 1 0;
#X connect 1 0 8 0;
#X connect 1 0 13 0;
#X connect 1 1 2 0;
#X connect 4 0 31 0;
#X connect 8 0 48 0;
#X connect 9 0 30 0;
#X connect 11 0 35 0;
#X connect 12 0 30 1;
#X connect 13 0 14 0;
#X connect 14 0 20 0;
#X connect 14 1 33 0;
#X connect 14 2 21 0;
#X connect 14 3 16 0;
#X connect 14 4 22 0;
#X connect 14 5 17 0;
#X connect 14 6 23 0;
#X connect 14 7 18 0;
#X connect 14 8 24 0;
#X connect 14 9 19 0;
#X connect 15 0 25 0;
#X connect 16 0 26 0;
#X connect 17 0 27 0;
#X connect 18 0 28 0;
#X connect 19 0 29 0;
#X connect 25 0 30 5;
#X connect 26 0 30 6;
#X connect 27 0 30 7;
#X connect 28 0 30 8;
#X connect 29 0 30 9;
#X connect 31 0 32 0;
#X connect 32 0 9 0;
#X connect 33 0 34 0;
#X connect 34 0 15 0;
#X connect 35 0 42 0;
#X connect 35 1 39 0;
#X connect 36 0 38 0;
#X connect 36 0 40 0;
#X connect 37 0 38 0;
#X connect 37 0 41 0;
#X connect 38 0 12 0;
#X connect 39 0 37 0;
#X connect 42 0 43 0;
#X connect 43 0 36 0;
#X connect 47 0 57 0;
#X connect 48 0 3 0;
#X connect 48 1 4 0;
#X connect 48 2 10 0;
#X connect 48 3 11 0;
#X connect 48 4 44 0;
#X connect 48 5 46 0;
#X connect 48 6 45 0;
#X connect 48 7 47 0;
#X connect 48 8 49 0;
#X connect 48 9 50 0;
#X connect 50 0 51 0;
#X connect 51 0 52 0;
#X connect 52 0 53 0;
#X connect 53 0 54 0;
#X connect 54 0 55 0;
#X connect 55 0 56 0;
#X connect 56 0 30 4;
#X connect 57 0 58 0;
#X connect 58 0 59 0;
#X connect 59 0 60 0;
#X connect 60 0 62 0;
#X connect 62 0 63 0;
#X connect 63 0 61 0;
